<?xml version="1.0" encoding="UTF-8" standalone="no"?>
<!DOCTYPE svg PUBLIC "-//W3C//DTD SVG 1.1//EN" "http://www.w3.org/Graphics/SVG/1.1/DTD/svg11.dtd">
<svg xmlns="http://www.w3.org/2000/svg" version="1.1" viewBox="0.00 0.00 1045.00 630.00">
<ellipse fill="#1e252d" cx="0.00" cy="0.00" transform="translate(366.33,63.95) rotate(25.3)" rx="43.31" ry="41.76"/>
<ellipse fill="#1e252d" cx="0.00" cy="0.00" transform="translate(707.12,102.95) rotate(34.1)" rx="43.75" ry="41.42"/>
<path fill="#1e252d" d="
  M 414.98 533.01
  Q 374.92 515.06 344.71 484.28
  Q 316.21 455.24 297.80 417.93
  Q 274.01 369.72 273.42 316.07
  Q 272.76 256.34 301.85 202.33
  Q 306.67 193.38 312.42 185.10
  C 341.64 143.03 383.46 112.63 432.02 96.22
  C 455.22 88.38 480.74 84.03 505.77 84.22
  Q 557.02 84.61 602.40 102.98
  C 650.20 122.32 693.00 159.91 719.29 204.39
  Q 734.18 229.60 742.65 258.79
  Q 750.11 284.53 750.86 308.02
  C 751.30 321.71 751.50 336.81 749.66 350.37
  Q 740.30 419.39 694.15 469.93
  C 682.13 483.09 667.59 495.01 652.92 504.46
  C 650.86 505.78 648.56 506.95 646.03 506.17
  Q 621.88 498.75 596.95 488.14
  Q 590.52 485.40 585.16 482.50
  Q 584.70 482.25 584.74 481.73
  Q 584.86 479.97 586.50 479.36
  C 626.58 464.37 661.06 435.95 681.38 398.21
  C 700.79 362.18 707.03 320.35 697.61 280.23
  Q 689.33 244.93 668.79 215.21
  C 649.34 187.08 621.92 165.70 590.70 152.05
  C 570.44 143.19 548.91 136.91 527.06 134.92
  Q 478.01 130.46 433.05 149.59
  C 416.50 156.64 400.29 165.30 387.33 176.58
  Q 381.29 181.83 372.98 190.42
  C 344.14 220.22 327.56 258.04 324.44 299.26
  C 323.48 311.94 323.64 326.69 325.72 339.92
  C 331.22 374.96 346.76 408.21 369.15 435.31
  Q 390.53 461.19 420.34 477.94
  Q 443.97 491.21 469.25 498.38
  Q 476.86 500.53 483.59 502.77
  C 487.17 503.96 490.64 506.63 493.41 509.20
  C 506.52 521.30 520.85 532.65 534.32 540.67
  Q 543.55 546.18 553.38 551.86
  Q 554.35 552.42 553.67 553.31
  Q 553.59 553.41 552.79 553.56
  C 538.80 556.27 524.87 556.36 510.25 556.05
  Q 500.02 555.83 490.60 554.56
  Q 451.23 549.25 414.98 533.01
  Z"
/>
<path fill="#1e252d" d="
  M 403.00 325.94
  A 0.28 0.28 0.0 0 0 402.49 325.92
  Q 401.51 327.87 401.35 329.99
  C 399.38 356.79 404.74 382.83 415.44 407.32
  Q 424.14 427.24 434.71 442.41
  Q 439.70 449.58 445.43 457.04
  Q 446.08 457.90 446.15 459.03
  Q 446.22 460.24 445.14 459.69
  Q 438.38 456.28 431.71 451.48
  Q 414.84 439.35 401.79 424.37
  C 389.73 410.51 380.23 396.14 372.37 379.99
  Q 359.96 354.51 358.00 325.51
  Q 357.69 320.97 357.90 310.41
  Q 358.08 301.64 358.80 295.36
  Q 364.28 247.72 394.65 211.50
  Q 401.20 203.68 408.37 197.26
  Q 449.08 160.79 503.32 157.17
  Q 513.85 156.46 523.42 157.34
  Q 570.89 161.72 607.59 189.80
  C 651.43 223.34 675.30 278.29 667.67 333.75
  Q 661.40 379.38 630.22 413.31
  C 608.67 436.75 578.68 452.96 548.24 459.67
  C 541.65 461.12 537.29 458.22 531.32 454.89
  Q 511.62 443.87 493.27 431.81
  Q 469.89 416.43 446.53 395.62
  Q 419.84 371.84 408.28 341.41
  C 406.36 336.35 405.11 331.02 403.00 325.94
  Z
  M 593.8397 373.0103
  A 101.03 98.56 39.8 0 0 579.3092 232.6180
  A 101.03 98.56 39.8 0 0 438.6003 243.6697
  A 101.03 98.56 39.8 0 0 453.1308 384.0620
  A 101.03 98.56 39.8 0 0 593.8397 373.0103
  Z"
/>
<ellipse fill="#1e252d" cx="0.00" cy="0.00" transform="translate(704.13,531.22) rotate(45.0)" rx="33.97" ry="32.75"/>
</svg>
